{
  "asset": {
    "version": "2.0",
    "generator": "THREE.GLTFExporter r179"
  },
  "scenes": [
    {
      "nodes": [
        0
      ]
    }
  ],
  "scene": 0,
  "nodes": [
    {
      "matrix": [
        0.1,
        0,
        0,
        0,
        0,
        -0.1,
        1.2246467991473533e-17,
        0,
        0,
        -1.2246467991473533e-17,
        -0.1,
        0,
        0,
        -0.49659405460023653,
        0,
        1
      ],
      "name": "LogoMesh",
      "mesh": 0
    }
  ],
  "bufferViews": [
    {
      "buffer": 0,
      "byteOffset": 0,
      "byteLength": 530796,
      "target": 34962,
      "byteStride": 12
    },
    {
      "buffer": 0,
      "byteOffset": 530796,
      "byteLength": 353864,
      "target": 34962,
      "byteStride": 8
    },
    {
      "buffer": 0,
      "byteOffset": 884660,
      "byteLength": 530796,
      "target": 34962,
      "byteStride": 12
    },
    {
      "buffer": 0,
      "byteOffset": 1415456,
      "byteLength": 707728,
      "target": 34962,
      "byteStride": 16
    },
    {
      "buffer": 0,
      "byteOffset": 2123184,
      "byteLength": 411624,
      "target": 34963
    }
  ],
  "buffers": [
    {
      "byteLength": 2534808,
      "uri": "data:application/octet-stream;base64,"
    }
  ],
  "accessors": [
    {
      "bufferView": 0,
      "componentType": 5126,
      "count": 44233,
      "max": [
        101.0065689086914,
        17.591957092285156,
        6
      ],
      "min": [
        -101.0065689086914,
        -17.591957092285156,
        -6
      ],
      "type": "VEC3"
    },
    {
      "bufferView": 1,
      "componentType": 5126,
      "count": 44233,
      "max": [
        2.009869337081909,
        0.3318342864513397
      ],
      "min": [
        -2.0109856128692627,
        -0.3318342864513397
      ],
      "type": "VEC2"
    },
    {
      "bufferView": 2,
      "componentType": 5126,
      "count": 44233,
      "max": [
        1,
        1,
        1
      ],
      "min": [
        -1,
        -1,
        -1
      ],
      "type": "VEC3"
    },
    {
      "bufferView": 3,
      "componentType": 5126,
      "count": 44233,
      "max": [
        1,
        1,
        0.9882930517196655,
        1
      ],
      "min": [
        -0.99025958776474,
        -0.9647852778434753,
        -0.9858253598213196,
        -1
      ],
      "type": "VEC4"
    },
    {
      "bufferView": 4,
      "componentType": 5123,
      "count": 205812,
      "max": [
        44232
      ],
      "min": [
        0
      ],
      "type": "SCALAR"
    }
  ],
  "materials": [
    {
      "pbrMetallicRoughness": {
        "baseColorFactor": [
          0.43415363616478553,
          0.55201140150344,
          0.7304607400847158,
          1
        ],
        "metallicFactor": 1,
        "roughnessFactor": 0.25
      },
      "emissiveFactor": [
        0,
        0,
        0.033104766565152086
      ],
      "doubleSided": true,
      "extensions": {
        "KHR_materials_clearcoat": {
          "clearcoatFactor": 0.8,
          "clearcoatRoughnessFactor": 0.15
        },
        "KHR_materials_emissive_strength": {
          "emissiveStrength": 0.05
        }
      }
    }
  ],
  "meshes": [
    {
      "primitives": [
        {
          "mode": 4,
          "attributes": {
            "POSITION": 0,
            "TEXCOORD_0": 1,
            "NORMAL": 2,
            "TANGENT": 3
          },
          "indices": 4,
          "material": 0
        }
      ]
    }
  ],
  "extensionsUsed": [
    "KHR_materials_clearcoat",
    "KHR_materials_emissive_strength"
  ]
}