<?xml version="1.0" encoding="UTF-8"?>
<svg version="1.1" xmlns="http://www.w3.org/2000/svg" width="300px" height="60px" viewBox="0 0 500 100">
<path d="M0 0 C144.87 0 289.74 0 439 0 C439 34.98 439 69.96 439 106 C294.13 106 149.26 106 0 106 C0 71.02 0 36.04 0 0 Z " fill="transparent" transform="translate(0,0)"/>
<path d="M0 0 C1.14145981 0.00424484 2.28291962 0.00848969 3.45896912 0.01286316 C7.07575885 0.02954724 10.69197473 0.06718109 14.30859375 0.10546875 C16.77277837 0.12052883 19.23697178 0.13421491 21.70117188 0.14648438 C27.71633895 0.17941709 33.73117533 0.22951346 39.74609375 0.29296875 C39.82272784 7.33635414 39.8749367 14.37963034 39.91088867 21.42333984 C39.92589088 23.81498228 39.94629922 26.2065976 39.97241211 28.59814453 C40.00917418 32.05377939 40.02590639 35.50904767 40.0390625 38.96484375 C40.05454636 40.01847107 40.07003021 41.07209839 40.08598328 42.15765381 C40.08912864 56.3184942 36.11770782 67.66585642 26.43359375 78.10546875 C16.4847356 87.36590145 5.47049465 90.85939915 -7.9296875 90.51171875 C-20.40416022 89.69083688 -30.78082623 84.55204878 -39.25390625 75.29296875 C-46.2852837 66.04977937 -49.83876322 57.15705916 -49.75390625 45.54296875 C-49.75108643 44.67406006 -49.7482666 43.80515137 -49.74536133 42.90991211 C-49.50792236 33.37792933 -46.62892313 25.2250325 -41.25390625 17.29296875 C-39.1328125 15.4140625 -39.1328125 15.4140625 -36.81640625 13.73046875 C-34.41892976 11.97394198 -32.25660727 10.29571023 -30.16796875 8.17578125 C-27.5601611 5.61055005 -24.62284458 4.53232729 -21.25390625 3.29296875 C-20.62351944 3.03347946 -19.99313263 2.77399017 -19.34364319 2.50663757 C-12.85335827 0.03533955 -6.88818195 -0.09776085 0 0 Z " fill="#ABD8FE" transform="translate(199.25390625,12.70703125)"/>
<path d="M0 0 C1.04671875 -0.020625 2.0934375 -0.04125 3.171875 -0.0625 C13.04867322 -0.11188399 21.41175828 2.03153745 29.25 8.25 C30.9375 10.5 30.9375 10.5 32.25 13.25 C33.12036678 14.79428714 33.99577733 16.33573764 34.875 17.875 C39.15422193 25.47386076 39.76065341 34.61440179 37.49609375 43.0625 C34.07331027 51.00872674 29.4987116 55.21676817 21.734375 58.890625 C12.24789825 62.59162714 2.37709281 63.81846467 -7.75 63.25 C-7.75 61.93 -7.75 60.61 -7.75 59.25 C-9.07 59.25 -10.39 59.25 -11.75 59.25 C-12.84681138 50.05153146 -13.07645479 40.87604532 -13.3125 31.625 C-13.35578915 30.03254306 -13.39940637 28.440095 -13.44335938 26.84765625 C-13.5493542 22.98186282 -13.65091325 19.11597641 -13.75 15.25 C-14.74 15.25 -15.73 15.25 -16.75 15.25 C-16.75 10.63 -16.75 6.01 -16.75 1.25 C-11.06558522 0.11311704 -5.7754711 0.02803627 0 0 Z " fill="#ADD4FD" transform="translate(89.75,26.75)"/>
<path d="M0 0 C2.625 2.25 2.625 2.25 5 5 C5.52851562 5.50402344 6.05703125 6.00804687 6.6015625 6.52734375 C10.59156369 10.54570988 11.96056066 13.90854044 12.26171875 19.5703125 C11.97821526 22.20224046 11.33609292 23.65061672 9.9375 25.875 C8.9784375 27.421875 8.9784375 27.421875 8 29 C8.4403555 31.21491214 8.4403555 31.21491214 10 33 C13.65411302 37.77845549 13.66240904 42.20625332 13 48 C11.22677771 53.42397406 7.64660603 56.85168734 3 60 C-2.53176391 62.70625266 -7.96278628 62.52568936 -14 62 C-21.29072262 59.43474575 -26.23176182 54.45888102 -30.09765625 47.9375 C-31.22267075 45.52188446 -31.41061821 43.62795657 -31 41 C-29.56445975 40.49440092 -28.1264798 39.9957251 -26.6875 39.5 C-25.88699219 39.2215625 -25.08648437 38.943125 -24.26171875 38.65625 C-22 38 -22 38 -19 38 C-19 38.66 -19 39.32 -19 40 C-16.49962266 37.82575883 -15.56371414 36.26954202 -15 33 C-16.32 33 -17.64 33 -19 33 C-19.66 30.03 -20.32 27.06 -21 24 C-19.35 23.67 -17.7 23.34 -16 23 C-17.06541016 22.61908203 -17.06541016 22.61908203 -18.15234375 22.23046875 C-19.07144531 21.88628906 -19.99054687 21.54210937 -20.9375 21.1875 C-21.85402344 20.85105469 -22.77054688 20.51460937 -23.71484375 20.16796875 C-26 19 -26 19 -27 16 C-28.32 15.34 -29.64 14.68 -31 14 C-30.67 10.04 -30.34 6.08 -30 2 C-19.78694176 -2.49374563 -10.47943541 -5.74753175 0 0 Z " fill="#AAD2FB" transform="translate(40,26)"/>
<path d="M0 0 C7.26 0 14.52 0 22 0 C22 1.32 22 2.64 22 4 C23.32 4 24.64 4 26 4 C26.02718316 6.85423192 26.04692705 9.70820015 26.0625 12.5625 C26.07087891 13.36236328 26.07925781 14.16222656 26.08789062 14.98632812 C26.10741035 19.76866154 25.71532447 24.26097538 25 29 C24.9366883 31.14500031 24.9133899 33.29170098 24.9375 35.4375 C24.94652344 36.48808594 24.95554687 37.53867187 24.96484375 38.62109375 C24.97644531 39.40613281 24.98804688 40.19117188 25 41 C29.455 40.505 29.455 40.505 34 40 C34 41.65 34 43.3 34 45 C35.32 45 36.64 45 38 45 C37.85820962 47.22942748 37.71140302 49.45853628 37.5625 51.6875 C37.48128906 52.92886719 37.40007812 54.17023438 37.31640625 55.44921875 C37.05508683 58.38180337 36.65201621 61.13441617 36 64 C32.87588408 64.34197019 29.75060292 64.67192253 26.625 65 C25.75488281 65.09539062 24.88476562 65.19078125 23.98828125 65.2890625 C17.96970497 65.91321115 12.04920988 66.11723906 6 66 C6 64.68 6 63.36 6 62 C4.35 62 2.7 62 1 62 C0.85503601 55.90264494 0.71275051 49.80523481 0.57275391 43.70776367 C0.52495495 41.64134103 0.47647337 39.57493404 0.42724609 37.50854492 C0.12982382 25.00163461 -0.05563372 12.51063317 0 0 Z " fill="#AED6FE" transform="translate(390,26)"/>
<path d="M0 0 C13.36929696 -0.13751277 26.65131342 0.25619259 40 1 C40.495 3.475 40.495 3.475 41 6 C42.32 6 43.64 6 45 6 C45 9.63 45 13.26 45 17 C41.37 17 37.74 17 34 17 C34.00523682 17.83023682 34.01047363 18.66047363 34.01586914 19.51586914 C34.18272378 49.96156148 34.18272378 49.96156148 33 62 C27.54538831 63.38529821 22.63281599 64.2396943 17 64 C17 62.68 17 61.36 17 60 C15.68 60 14.36 60 13 60 C11.71953255 57.43906509 11.78971909 55.47452581 11.68359375 52.609375 C11.64161865 51.51286621 11.59964355 50.41635742 11.55639648 49.28662109 C11.51716064 48.11953613 11.4779248 46.95245117 11.4375 45.75 C11.3950415 44.5738916 11.35258301 43.3977832 11.30883789 42.18603516 C11.03218293 34.12017924 10.86793364 26.07072188 11 18 C9.02 18 7.04 18 5 18 C5 16.68 5 15.36 5 14 C3.35 14 1.7 14 0 14 C0 9.38 0 4.76 0 0 Z " fill="#AED5FE" transform="translate(325,27)"/>
<path d="M0 0 C6.51472081 5.09847716 6.51472081 5.09847716 8 9 C8.23046875 11.47265625 8.23046875 11.47265625 8.1875 14.0625 C8.18105469 14.91972656 8.17460937 15.77695312 8.16796875 16.66015625 C8 19 8 19 7 22 C4.03 22.33 1.06 22.66 -2 23 C-1.319375 24.11375 -1.319375 24.11375 -0.625 25.25 C1 28 1 28 1.9375 29.9375 C3.01345826 32.02612486 4.27060977 33.8332606 5.625 35.75 C8.38605169 40.15785107 8.74856665 42.84320753 8 48 C5.13146296 53.62674573 0.95557235 57.58938592 -4.75 60.3125 C-12.34344408 61.91880548 -18.17663749 61.4884363 -25.08984375 57.875 C-27.10440495 56.79176868 -27.10440495 56.79176868 -30 57 C-30.37125 55.9790625 -30.37125 55.9790625 -30.75 54.9375 C-31.95486401 51.85520285 -31.95486401 51.85520285 -34.125 48.8125 C-36.80815494 44.32069987 -36.28004606 40.11084062 -36 35 C-31.38 34.67 -26.76 34.34 -22 34 C-21.67 35.32 -21.34 36.64 -21 38 C-19.68 38 -18.36 38 -17 38 C-16.67 39.32 -16.34 40.64 -16 42 C-16.21133157 38.01897007 -16.52231772 36.43905168 -19.51171875 33.69140625 C-21.08373047 32.63759766 -21.08373047 32.63759766 -22.6875 31.5625 C-27.57367502 28.14912878 -31.5002229 24.86080153 -35 20 C-35 19.01 -35 18.02 -35 17 C-33.02 17.33 -31.04 17.66 -29 18 C-28.9175 18.598125 -28.835 19.19625 -28.75 19.8125 C-27.79544128 22.5966296 -26.42867729 23.43311142 -24 25 C-23.67 24.01 -23.34 23.02 -23 22 C-23.66 22 -24.32 22 -25 22 C-24.47731534 19.23723823 -23.89130413 16.6739124 -23 14 C-22.690625 12.80375 -22.38125 11.6075 -22.0625 10.375 C-21.711875 9.26125 -21.36125 8.1475 -21 7 C-18.23749964 5.61874982 -16.05268901 5.80920694 -13 6 C-11 8 -11 8 -10.8125 11 C-11 14 -11 14 -12 16 C-11.11248047 15.98259766 -11.11248047 15.98259766 -10.20703125 15.96484375 C-9.02173828 15.95130859 -9.02173828 15.95130859 -7.8125 15.9375 C-7.03519531 15.92589844 -6.25789063 15.91429687 -5.45703125 15.90234375 C-2.87887289 16.00481427 -0.51344269 16.43302447 2 17 C2.05441656 15.10448978 2.09298035 13.2085208 2.125 11.3125 C2.14820313 10.25675781 2.17140625 9.20101562 2.1953125 8.11328125 C1.99858729 4.97748141 1.33057654 2.82354627 0 0 Z " fill="#A9D1FB" transform="translate(296,32)"/>
<path d="M0 0 C2.62714749 1.29931127 5.08850117 2.80672792 7.5625 4.375 C8.20896484 4.77460937 8.85542969 5.17421875 9.52148438 5.5859375 C10.77591884 6.36182372 12.02814281 7.14129839 13.27783203 7.92480469 C15.50100144 9.31278854 17.74772995 10.6598777 20 12 C19.25390625 13.921875 19.25390625 13.921875 18 16 C16.08984375 16.703125 16.08984375 16.703125 13.9375 17.25 C11.63372223 18.09374647 11.63372223 18.09374647 10 20 C9.72868995 22.6924573 9.63308306 25.12702413 9.6875 27.8125 C9.74525616 32.23931043 9.73081085 35.17661977 6.65625 38.640625 C-0.35557488 43.179859 -0.35557488 43.179859 -4 42.78125 C-4.99 42.39453125 -4.99 42.39453125 -6 42 C-6.91136719 41.72027344 -7.82273438 41.44054687 -8.76171875 41.15234375 C-12.13563692 39.75142446 -14.3982377 38.59317562 -17 36 C-18.27805055 31.883055 -18.085906 27.65279185 -17.97265625 23.38671875 C-17.98167969 22.26910156 -17.99070313 21.15148437 -18 20 C-18.66 19.67 -19.32 19.34 -20 19 C-20 25.27 -20 31.54 -20 38 C-18.35 38.66 -16.7 39.32 -15 40 C-13.04906292 41.01627762 -11.11153494 42.05866738 -9.1875 43.125 C-8.21167969 43.66382813 -7.23585937 44.20265625 -6.23046875 44.7578125 C-5.49441406 45.16773438 -4.75835937 45.57765625 -4 46 C-4 49.63 -4 53.26 -4 57 C-6.0123394 56.37156178 -8.00825123 55.69092784 -10 55 C-11.17320801 54.60071289 -11.17320801 54.60071289 -12.37011719 54.19335938 C-19.0896338 51.70615044 -25.58711898 48.83106645 -30 43 C-31.6843732 37.87380725 -32.00207229 33.02286183 -32 27.6875 C-32.01633484 27.02093384 -32.03266968 26.35436768 -32.04949951 25.66760254 C-32.10035545 21.12289335 -31.70940738 17.22327989 -30 13 C-26.37128294 9.72860992 -22.45577048 7.92322646 -18 6 C-16.78630661 5.28012479 -15.5856966 4.53647664 -14.4140625 3.75 C-13.03347656 2.88375 -13.03347656 2.88375 -11.625 2 C-10.68914062 1.401875 -9.75328125 0.80375 -8.7890625 0.1875 C-5.22464781 -1.33012194 -3.69283075 -1.13696666 0 0 Z " fill="#36B3F9" transform="translate(198,30)"/>
<path d="M0 0 C1.14145981 0.00424484 2.28291962 0.00848969 3.45896912 0.01286316 C7.07575885 0.02954724 10.69197473 0.06718109 14.30859375 0.10546875 C16.77277837 0.12052883 19.23697178 0.13421491 21.70117188 0.14648438 C27.71633895 0.17941709 33.73117533 0.22951346 39.74609375 0.29296875 C39.82272784 7.33635414 39.8749367 14.37963034 39.91088867 21.42333984 C39.92589088 23.81498228 39.94629922 26.2065976 39.97241211 28.59814453 C40.00917418 32.05377939 40.02590639 35.50904767 40.0390625 38.96484375 C40.05454636 40.01847107 40.07003021 41.07209839 40.08598328 42.15765381 C40.08912864 56.3184942 36.11770782 67.66585642 26.43359375 78.10546875 C16.4847356 87.36590145 5.47049465 90.85939915 -7.9296875 90.51171875 C-20.40416022 89.69083688 -30.78082623 84.55204878 -39.25390625 75.29296875 C-46.2852837 66.04977937 -49.83876322 57.15705916 -49.75390625 45.54296875 C-49.75108643 44.67406006 -49.7482666 43.80515137 -49.74536133 42.90991211 C-49.50792236 33.37792933 -46.62892313 25.2250325 -41.25390625 17.29296875 C-39.1328125 15.4140625 -39.1328125 15.4140625 -36.81640625 13.73046875 C-34.41892976 11.97394198 -32.25660727 10.29571023 -30.16796875 8.17578125 C-27.5601611 5.61055005 -24.62284458 4.53232729 -21.25390625 3.29296875 C-20.62351944 3.03347946 -19.99313263 2.77399017 -19.34364319 2.50663757 C-12.85335827 0.03533955 -6.88818195 -0.09776085 0 0 Z M-36.72265625 18.1953125 C-44.74008291 29.17836892 -46.27922809 40.11271429 -45.25390625 53.29296875 C-43.16723445 64.68167149 -36.91204227 73.10150633 -27.6015625 79.78515625 C-20.36550859 84.43260519 -14.20789847 85.64558403 -5.69140625 85.73046875 C-4.50442139 85.74581665 -4.50442139 85.74581665 -3.29345703 85.76147461 C7.00145138 85.60891794 15.75899986 81.72131058 23.74609375 75.29296875 C30.74549024 67.58198851 35.88796238 57.06810019 35.85961914 46.52441406 C35.85954361 45.58374084 35.85946808 44.64306763 35.85939026 43.67388916 C35.85422897 42.66646667 35.84906769 41.65904419 35.84375 40.62109375 C35.84233505 39.58353943 35.8409201 38.54598511 35.83946228 37.47698975 C35.83386822 34.16561999 35.82131678 30.85431804 35.80859375 27.54296875 C35.80357798 25.29687598 35.79901521 23.05078214 35.79492188 20.8046875 C35.78390074 15.30075815 35.76716849 9.79686829 35.74609375 4.29296875 C29.84197179 4.24308989 23.93797571 4.20702495 18.03369141 4.18310547 C16.03008891 4.17312127 14.0265007 4.1595292 12.02294922 4.14208984 C-14.77712641 3.84569624 -14.77712641 3.84569624 -36.72265625 18.1953125 Z " fill="#57D2E3" transform="translate(199.25390625,12.70703125)"/>
<path d="M0 0 C0.495 0.99 0.495 0.99 1 2 C0.34 2 -0.32 2 -1 2 C-0.45859375 2.81791016 -0.45859375 2.81791016 0.09375 3.65234375 C3.52150226 9.22244117 4.91863208 13.46458893 4 20 C3.505 21.485 3.505 21.485 3 23 C-3.93 22.505 -3.93 22.505 -11 22 C-10.96744792 19.94921875 -10.93489583 17.8984375 -10.90234375 15.84765625 C-10.79438816 13.98267859 -10.79438816 13.98267859 -12 13 C-16.14276875 12.75266863 -16.14276875 12.75266863 -20 14 C-20.39156228 16.32506659 -20.39156228 16.32506659 -20.5 19 C-20.65625 21.75 -20.65625 21.75 -21 24 C-21.66 24.33 -22.32 24.66 -23 25 C-23.33 25.99 -23.66 26.98 -24 28 C-23.34 28 -22.68 28 -22 28 C-22.33 29.32 -22.66 30.64 -23 32 C-25.04119788 30.38405168 -27.04072937 28.7143618 -29 27 C-29 26.34 -29 25.68 -29 25 C-29.969375 24.87625 -30.93875 24.7525 -31.9375 24.625 C-33.4534375 24.315625 -33.4534375 24.315625 -35 24 C-37.08249458 19.83501084 -36.39355266 15.20525502 -35 10.9375 C-26.15675594 -2.05101471 -14.40005962 -2.32259026 0 0 Z " fill="#AED4FC" transform="translate(295,26)"/>
<path d="M0 0 C0.66 0.33 1.32 0.66 2 1 C2.24843165 5.16218556 2.42914913 9.32039169 2.54931641 13.48779297 C2.5994188 14.90261999 2.66753362 16.31693378 2.75439453 17.72998047 C3.02687183 22.27874856 3.07890096 26.53145232 2 31 C-0.89553982 34.09490136 -4.12327938 35.41492656 -8 37 C-9.41386424 37.83342253 -10.81172978 38.69493509 -12.1875 39.58984375 C-12.82300781 39.98107422 -13.45851562 40.37230469 -14.11328125 40.77539062 C-15.40597202 41.5716132 -16.69486832 42.37401984 -17.98046875 43.18164062 C-19.61764579 44.18251278 -21.30540846 45.09974824 -23 46 C-23.66 45.67 -24.32 45.34 -25 45 C-24.67 41.37 -24.34 37.74 -24 34 C-25.65 33.34 -27.3 32.68 -29 32 C-32.70672875 30.06909946 -36.34381227 28.02632091 -40 26 C-40 19.73 -40 13.46 -40 7 C-39.01 7.33 -38.02 7.66 -37 8 C-37 13.28 -37 18.56 -37 24 C-35.68 24.33 -34.36 24.66 -33 25 C-30.93490183 26.26648599 -28.97767783 27.64078247 -27 29.0390625 C-25.06745991 30.17982452 -25.06745991 30.17982452 -23.0078125 29.80859375 C-20.7604859 28.90354199 -18.88964411 27.78187278 -16.875 26.4375 C-13.21529745 24 -13.21529745 24 -11 24 C-11.02320313 22.86820313 -11.04640625 21.73640625 -11.0703125 20.5703125 C-11.08906901 19.08854825 -11.10726934 17.60677688 -11.125 16.125 C-11.14175781 15.37863281 -11.15851563 14.63226563 -11.17578125 13.86328125 C-11.1933959 11.90805539 -11.10320189 9.95257979 -11 8 C-9 6 -9 6 -5.5 4.5625 C-1.80562758 3.28656506 -1.80562758 3.28656506 0 0 Z " fill="#49D6E7" transform="translate(218,42)"/>
<path d="M0 0 C13.36929696 -0.13751277 26.65131342 0.25619259 40 1 C40.495 3.475 40.495 3.475 41 6 C42.32 6 43.64 6 45 6 C45 9.63 45 13.26 45 17 C41.37 17 37.74 17 34 17 C34.00523682 17.83023682 34.01047363 18.66047363 34.01586914 19.51586914 C34.18272378 49.96156148 34.18272378 49.96156148 33 62 C27.54538831 63.38529821 22.63281599 64.2396943 17 64 C17 62.68 17 61.36 17 60 C15.68 60 14.36 60 13 60 C11.71953255 57.43906509 11.78971909 55.47452581 11.68359375 52.609375 C11.64161865 51.51286621 11.59964355 50.41635742 11.55639648 49.28662109 C11.51716064 48.11953613 11.4779248 46.95245117 11.4375 45.75 C11.3950415 44.5738916 11.35258301 43.3977832 11.30883789 42.18603516 C11.03218293 34.12017924 10.86793364 26.07072188 11 18 C9.02 18 7.04 18 5 18 C5 16.68 5 15.36 5 14 C3.35 14 1.7 14 0 14 C0 9.38 0 4.76 0 0 Z M2 1 C2 4.96 2 8.92 2 13 C5.3 13 8.6 13 12 13 C12.02505615 13.89605957 12.0501123 14.79211914 12.07592773 15.71533203 C12.17233538 19.11124215 12.27146826 22.50705188 12.37231445 25.90283203 C12.41503532 27.3591817 12.45673898 28.81556164 12.49731445 30.27197266 C12.76567529 39.87332707 13.2283121 49.42349525 14 59 C15.58333333 58.85416667 17.16666667 58.70833333 18.75 58.5625 C19.63171875 58.48128906 20.5134375 58.40007812 21.421875 58.31640625 C23.69775952 58.03709315 25.78698816 57.57793339 28 57 C28.89225241 34.50686056 28.89225241 34.50686056 29 12 C32.3 12 35.6 12 39 12 C39 9.03 39 6.06 39 3 C34.23059541 2.24834398 29.57877082 1.82854676 24.75390625 1.68359375 C24.09792953 1.66281265 23.44195282 1.64203156 22.76609802 1.62062073 C20.69832454 1.55594062 18.63043899 1.49662534 16.5625 1.4375 C15.14907758 1.39423693 13.73566593 1.35062035 12.32226562 1.30664062 C8.88162529 1.20034484 5.44086308 1.09885528 2 1 Z " fill="#365DC5" transform="translate(325,27)"/>
<path d="M0 0 C7.26 0 14.52 0 22 0 C22 1.32 22 2.64 22 4 C23.32 4 24.64 4 26 4 C26.02718316 6.85423192 26.04692705 9.70820015 26.0625 12.5625 C26.07087891 13.36236328 26.07925781 14.16222656 26.08789062 14.98632812 C26.10741035 19.76866154 25.71532447 24.26097538 25 29 C24.9366883 31.14500031 24.9133899 33.29170098 24.9375 35.4375 C24.94652344 36.48808594 24.95554687 37.53867187 24.96484375 38.62109375 C24.97644531 39.40613281 24.98804688 40.19117188 25 41 C29.455 40.505 29.455 40.505 34 40 C34 41.65 34 43.3 34 45 C35.32 45 36.64 45 38 45 C37.85820962 47.22942748 37.71140302 49.45853628 37.5625 51.6875 C37.48128906 52.92886719 37.40007812 54.17023438 37.31640625 55.44921875 C37.05508683 58.38180337 36.65201621 61.13441617 36 64 C32.87588408 64.34197019 29.75060292 64.67192253 26.625 65 C25.75488281 65.09539062 24.88476562 65.19078125 23.98828125 65.2890625 C17.96970497 65.91321115 12.04920988 66.11723906 6 66 C6 64.68 6 63.36 6 62 C4.35 62 2.7 62 1 62 C0.85503601 55.90264494 0.71275051 49.80523481 0.57275391 43.70776367 C0.52495495 41.64134103 0.47647337 39.57493404 0.42724609 37.50854492 C0.12982382 25.00163461 -0.05563372 12.51063317 0 0 Z M2 1 C1.9774281 8.39733291 1.95907278 15.79464707 1.94818783 23.19200706 C1.94296421 26.62671562 1.93587599 30.06139943 1.92456055 33.49609375 C1.91163965 37.44270535 1.90676748 41.38930684 1.90234375 45.3359375 C1.89718246 46.57242035 1.89202118 47.8089032 1.88670349 49.08285522 C1.88662796 50.22388702 1.88655243 51.36491882 1.88647461 52.54052734 C1.884254 53.548685 1.88203339 54.55684265 1.87974548 55.59555054 C1.83917452 58.01333061 1.83917452 58.01333061 3 60 C17.02903187 60.14864015 17.02903187 60.14864015 31 59 C31.33808686 56.93827387 31.67027361 54.8755797 32 52.8125 C32.185625 51.66394531 32.37125 50.51539063 32.5625 49.33203125 C33.10848658 45.73386356 33.10848658 45.73386356 33 41 C28.05 41.99 23.1 42.98 18 44 C18.33 42.68 18.66 41.36 19 40 C19.21341963 37.87562411 19.38713886 35.74711982 19.53515625 33.6171875 C19.62216797 32.36679687 19.70917969 31.11640625 19.79882812 29.828125 C19.88583984 28.52359375 19.97285156 27.2190625 20.0625 25.875 C20.15337891 24.59367187 20.24425781 23.31234375 20.33789062 21.9921875 C20.81596327 14.97566263 21.10123408 8.03239442 21 1 C14.73 1 8.46 1 2 1 Z " fill="#4B72C2" transform="translate(390,26)"/>
<path d="M0 0 C1.04671875 -0.020625 2.0934375 -0.04125 3.171875 -0.0625 C9.76248681 -0.09545306 15.16083952 0.6867534 21.25 3.25 C20.26 3.91 19.27 4.57 18.25 5.25 C18.25 4.59 18.25 3.93 18.25 3.25 C11.45336964 1.98249331 4.70701316 2.13860274 -2.1875 2.1875 C-4.00024414 2.19426758 -4.00024414 2.19426758 -5.84960938 2.20117188 C-8.81642772 2.21289843 -11.7832204 2.23083201 -14.75 2.25 C-15.08 5.88 -15.41 9.51 -15.75 13.25 C-14.43 13.25 -13.11 13.25 -11.75 13.25 C-11.12185081 28.25541501 -10.57329595 43.23015546 -10.75 58.25 C10.06001916 56.57676411 10.06001916 56.57676411 27.4375 46.0625 C32.33965815 38.45570287 33.45951592 30.18097919 32.25 21.25 C31.16154187 18.39657677 29.90933939 15.89145088 28.34375 13.2734375 C27.25 11.25 27.25 11.25 27.25 8.25 C34.65168104 15.88038467 38.41512397 21.93674499 38.75 32.75 C38.50053173 41.64176174 36.15940178 47.63484079 30.25 54.25 C19.1223767 61.83145763 5.47757561 63.99250424 -7.75 63.25 C-7.75 61.93 -7.75 60.61 -7.75 59.25 C-9.07 59.25 -10.39 59.25 -11.75 59.25 C-12.84681138 50.05153146 -13.07645479 40.87604532 -13.3125 31.625 C-13.35578915 30.03254306 -13.39940637 28.440095 -13.44335938 26.84765625 C-13.5493542 22.98186282 -13.65091325 19.11597641 -13.75 15.25 C-14.74 15.25 -15.73 15.25 -16.75 15.25 C-16.75 10.63 -16.75 6.01 -16.75 1.25 C-11.06558522 0.11311704 -5.7754711 0.02803627 0 0 Z " fill="#355DC2" transform="translate(89.75,26.75)"/>
<path d="M0 0 C0.76739502 0.30897217 1.53479004 0.61794434 2.32543945 0.9362793 C4.13769088 1.65704419 5.96089297 2.35075953 7.79296875 3.01953125 C10 5 10 5 10.39306641 7.02099609 C10.49397112 9.59432505 10.43481045 12.11521713 10.3125 14.6875 C10.27866211 16.02651367 10.27866211 16.02651367 10.24414062 17.39257812 C10.18520574 19.59674272 10.10300818 21.79752672 10 24 C10.70511719 24.26554687 11.41023437 24.53109375 12.13671875 24.8046875 C15.15567786 26.06498967 17.95185076 27.53957994 20.8125 29.125 C21.78832031 29.66382812 22.76414063 30.20265625 23.76953125 30.7578125 C24.50558594 31.16773437 25.24164063 31.57765625 26 32 C26 35.63 26 39.26 26 43 C23.98671131 42.37460966 21.99108779 41.69283033 20 41 C18.82679199 40.59273682 18.82679199 40.59273682 17.62988281 40.17724609 C10.98644134 37.66936572 4.32160937 34.83338115 0 29 C-2.51883917 19.68456882 -1.21439003 9.45729591 0 0 Z " fill="#577AF4" transform="translate(168,44)"/>
<path d="M0 0 C4.4763598 3.30861376 6.84435297 5.33732955 8 11 C8.52022526 15.07509791 8.01537834 17.23365728 5.875 20.625 C3.65741663 23.6982079 3.65741663 23.6982079 4.5625 26.125 C5.036875 26.74375 5.51125 27.3625 6 28 C9.65411302 32.77845549 9.66240904 37.20625332 9 43 C7.22677771 48.42397406 3.64660603 51.85168734 -1 55 C-7.40366968 58.13280689 -14.81513619 58.08057879 -21.5 55.8125 C-24.23452282 53.82997095 -26.06311324 51.75633885 -28 49 C-27.29617187 49.32355469 -26.59234375 49.64710937 -25.8671875 49.98046875 C-20.07499992 52.04008858 -12.84050682 52.04750923 -7.0625 49.8125 C-2.68507575 47.22177952 0.17986 44.79649714 2.3125 40.125 C3.68872624 33.86942617 3.44809433 29.49140949 0 24 C-0.99 23.34 -1.98 22.68 -3 22 C-1 18 -1 18 0.05859375 16.171875 C1.16539877 13.61841611 1.23399537 11.77281473 1.1875 9 C1.18105469 8.154375 1.17460938 7.30875 1.16796875 6.4375 C1.01154076 4.16747523 0.63089814 2.18038396 0 0 Z " fill="#355DC3" transform="translate(44,31)"/>
<path d="M0 0 C5.37295246 0.67532966 7.47667066 1.79157884 11 6 C14.22476535 11.14830959 13.67604596 17.15952046 13 23 C11.30253907 27.70626508 9.07116225 30.31445616 4.875 33 C2 34 2 34 -1 34 C-1.11858127 22.61619816 -0.86612792 11.35246238 0 0 Z " fill="#9DC4F3" transform="translate(95,40)"/>
<path d="M0 0 C2.9375 0.9375 2.9375 0.9375 4.375 2.625 C5.15425429 5.82860097 4.90506287 7.77679462 3.9375 10.9375 C1.75 13.8125 1.75 13.8125 -1.0625 15.9375 C-4.375 16.25 -4.375 16.25 -7.0625 15.9375 C-6.7325 17.9175 -6.4025 19.8975 -6.0625 21.9375 C-4.804375 22.040625 -3.54625 22.14375 -2.25 22.25 C0.20885361 22.5763965 1.76243061 22.83902347 3.9375 24.0625 C5.58866513 27.15843463 5.34612582 29.49336805 4.9375 32.9375 C3.25 36.375 3.25 36.375 0.9375 38.9375 C-1.8125 39.3125 -1.8125 39.3125 -4.0625 38.9375 C-5.3825 36.6275 -6.7025 34.3175 -8.0625 31.9375 C-8.619375 32.123125 -9.17625 32.30875 -9.75 32.5 C-12.461633 33.01301165 -14.40621039 32.6015724 -17.0625 31.9375 C-13.61799263 29.64116176 -11.12437717 29.39733515 -7.0625 28.9375 C-7.0625 29.5975 -7.0625 30.2575 -7.0625 30.9375 C-4.56212266 28.76325883 -3.62621414 27.20704202 -3.0625 23.9375 C-4.3825 23.9375 -5.7025 23.9375 -7.0625 23.9375 C-7.7225 20.9675 -8.3825 17.9975 -9.0625 14.9375 C-7.4125 14.6075 -5.7625 14.2775 -4.0625 13.9375 C-4.77277344 13.69515625 -5.48304687 13.4528125 -6.21484375 13.203125 C-7.13394531 12.86796875 -8.05304687 12.5328125 -9 12.1875 C-9.91652344 11.86265625 -10.83304688 11.5378125 -11.77734375 11.203125 C-12.90849609 10.57664062 -12.90849609 10.57664062 -14.0625 9.9375 C-14.3925 8.6175 -14.7225 7.2975 -15.0625 5.9375 C-12.0925 6.9275 -9.1225 7.9175 -6.0625 8.9375 C-6.124375 8.009375 -6.18625 7.08125 -6.25 6.125 C-6.0625 2.9375 -6.0625 2.9375 -4.9375 1 C-3.0625 -0.0625 -3.0625 -0.0625 0 0 Z " fill="#8CB3E7" transform="translate(28.0625,35.0625)"/>
<path d="M0 0 C6.51472081 5.09847716 6.51472081 5.09847716 8 9 C8.23046875 11.47265625 8.23046875 11.47265625 8.1875 14.0625 C8.18105469 14.91972656 8.17460937 15.77695312 8.16796875 16.66015625 C8 19 8 19 7 22 C2.71 22 -1.58 22 -6 22 C-5.67 22.99 -5.34 23.98 -5 25 C-8.82472829 23.62666848 -11.88428843 21.85872294 -15.1875 19.5 C-16.04730469 18.8915625 -16.90710938 18.283125 -17.79296875 17.65625 C-20 16 -20 16 -22 14 C-22.3125 11 -22.3125 11 -22 8 C-18.54754176 5.69836118 -17.05261287 5.65509678 -13 6 C-11 8 -11 8 -10.8125 11 C-11 14 -11 14 -12 16 C-11.40832031 15.98839844 -10.81664062 15.97679687 -10.20703125 15.96484375 C-9.02173828 15.95130859 -9.02173828 15.95130859 -7.8125 15.9375 C-7.03519531 15.92589844 -6.25789063 15.91429687 -5.45703125 15.90234375 C-2.87887289 16.00481427 -0.51344269 16.43302447 2 17 C2.05441656 15.10448978 2.09298035 13.2085208 2.125 11.3125 C2.14820313 10.25675781 2.17140625 9.20101562 2.1953125 8.11328125 C1.99858729 4.97748141 1.33057654 2.82354627 0 0 Z " fill="#79A0DE" transform="translate(296,32)"/>
<path d="M0 0 C4.08527604 2.87073452 6.27714629 5.28482142 8 10 C8.71564266 14.36367477 8.39826684 17.21878429 6.375 21.1875 C1.59784095 26.84466203 -2.81094465 30.42343829 -10.28515625 31.25390625 C-16.4172544 31.54771621 -21.88447467 30.57204786 -27 27 C-28.25 24.859375 -28.25 24.859375 -29 23 C-28.030625 23.33 -27.06125 23.66 -26.0625 24 C-18.70861582 26.03782333 -12.23873396 25.47867868 -5.2421875 22.39453125 C-1.47625093 20.05230241 0.47618303 17.12281445 2 13 C2.58575343 8.14661447 1.76701368 4.52797256 0 0 Z " fill="#365EC2" transform="translate(296,62)"/>
<path d="M0 0 C0.33 0 0.66 0 1 0 C1 1.65 1 3.3 1 5 C2.32 5 3.64 5 5 5 C4.85820962 7.22942748 4.71140302 9.45853628 4.5625 11.6875 C4.48128906 12.92886719 4.40007812 14.17023438 4.31640625 15.44921875 C4.05508683 18.38180337 3.65201621 21.13441617 3 24 C-0.12411592 24.34197019 -3.24939708 24.67192253 -6.375 25 C-7.24511719 25.09539062 -8.11523438 25.19078125 -9.01171875 25.2890625 C-15.03029503 25.91321115 -20.95079012 26.11723906 -27 26 C-27 24.35 -27 22.7 -27 21 C-19.17173693 18.39057898 -10.18311217 18.83706193 -2 19 C-1.90912109 17.69675781 -1.90912109 17.69675781 -1.81640625 16.3671875 C-1.73261719 15.21476562 -1.64882813 14.06234375 -1.5625 12.875 C-1.48128906 11.73804687 -1.40007812 10.60109375 -1.31640625 9.4296875 C-1.02269035 6.2459522 -0.56875687 3.14489093 0 0 Z " fill="#3760C5" transform="translate(423,66)"/>
<path d="M0 0 C0.66 0.33 1.32 0.66 2 1 C1.67 1.99 1.34 2.98 1 4 C1.66 4 2.32 4 3 4 C3 4.66 3 5.32 3 6 C4.32 6.66 5.64 7.32 7 8 C6.69128878 9.79232337 6.37790936 11.58384321 6.0625 13.375 C5.88847656 14.37273438 5.71445312 15.37046875 5.53515625 16.3984375 C4.88276286 19.56992654 3.4415685 22.11686299 2 25 C2.66 25 3.32 25 4 25 C3.67 26.32 3.34 27.64 3 29 C0.95880212 27.38405168 -1.04072937 25.7143618 -3 24 C-3 23.34 -3 22.68 -3 22 C-5.475 21.01 -5.475 21.01 -8 20 C-9.51361621 11.06966434 -9.51361621 11.06966434 -7 7 C-5.67532254 6.3162955 -4.34136367 5.65035814 -3 5 C-1.24677063 2.46811352 -1.24677063 2.46811352 0 0 Z " fill="#B0D5FB" transform="translate(269,29)"/>
<path d="M0 0 C0.99 0.33 1.98 0.66 3 1 C3 6.28 3 11.56 3 17 C4.32 17.33 5.64 17.66 7 18 C9.06509817 19.26648599 11.02232217 20.64078247 13 22.0390625 C14.93254009 23.17982452 14.93254009 23.17982452 16.9921875 22.80859375 C19.2395141 21.90354199 21.11035589 20.78187278 23.125 19.4375 C26.78470255 17 26.78470255 17 29 17 C29 11.72 29 6.44 29 1 C29.99 1 30.98 1 32 1 C32 6.94 32 12.88 32 19 C29.77317087 20.22974146 27.54600653 21.45888374 25.31640625 22.68359375 C22.88460055 24.02393121 22.88460055 24.02393121 20.25 25.875 C17.27125396 27.36437302 16.18962331 26.90812557 13 26 C8.56773129 23.83322854 4.31514156 21.39730087 0 19 C0 12.73 0 6.46 0 0 Z " fill="#A0D5FE" transform="translate(178,49)"/>
<path d="M0 0 C13.36929696 -0.13751277 26.65131342 0.25619259 40 1 C40.92604802 5.02659396 40.85035239 7.93720525 40 12 C39.67 12 39.34 12 39 12 C39 9.03 39 6.06 39 3 C38.19892822 2.97494385 37.39785645 2.9498877 36.57250977 2.92407227 C32.90237974 2.80720265 29.23244983 2.68489255 25.5625 2.5625 C24.30244141 2.52318359 23.04238281 2.48386719 21.74414062 2.44335938 C15.11098393 2.21821306 8.5829411 1.85241566 2 1 C2 4.96 2 8.92 2 13 C5.3 13 8.6 13 12 13 C12.29077759 17.30056958 12.57527127 21.60150032 12.85449219 25.90283203 C12.9498632 27.35932017 13.04681156 28.81570607 13.14550781 30.27197266 C13.79457155 39.8688436 14.1370196 49.37627631 14 59 C13.34 58.67 12.68 58.34 12 58 C10.80611597 29.84846857 10.80611597 29.84846857 11 18 C9.02 18 7.04 18 5 18 C5 16.68 5 15.36 5 14 C3.35 14 1.7 14 0 14 C0 9.38 0 4.76 0 0 Z " fill="#6D94D0" transform="translate(325,27)"/>
<path d="M0 0 C2.31 0.33 4.62 0.66 7 1 C8.94345974 4.88691948 8.18480803 9.72514581 8.1875 14 C8.19974609 15.02351563 8.21199219 16.04703125 8.22460938 17.1015625 C8.22750977 18.56722656 8.22750977 18.56722656 8.23046875 20.0625 C8.23457764 20.96097656 8.23868652 21.85945313 8.24291992 22.78515625 C8 25 8 25 6 27 C3.38419521 26.6730244 1.35921863 26.17960932 -1 25 C-0.67 16.75 -0.34 8.5 0 0 Z " fill="#5173FC" transform="translate(170,47)"/>
<path d="M0 0 C4.16652281 0.59929438 6.89896737 1.01823786 10 4 C10 4.66 10 5.32 10 6 C8.35 5.67 6.7 5.34 5 5 C5.01160156 5.59683594 5.02320312 6.19367187 5.03515625 6.80859375 C5.12626556 15.56810313 4.57349881 24.26438425 4 33 C1.525 33.495 1.525 33.495 -1 34 C-1.11858127 22.61619816 -0.86612792 11.35246238 0 0 Z " fill="#3158C2" transform="translate(95,40)"/>
<path d="M0 0 C6.38363921 4.7339347 9.50380038 9.51140115 12 17 C12.63948833 25.74316837 12.66720796 33.31160832 8 41 C7.01 40.67 6.02 40.34 5 40 C5 38.68 5 37.36 5 36 C4.34 35.67 3.68 35.34 3 35 C3.495 33.783125 3.99 32.56625 4.5 31.3125 C7.15161334 23.2046823 7.44582976 15.08537938 3.5625 7.375 C2.71122427 5.91497725 1.8575138 4.4563677 1 3 C0.67 2.01 0.34 1.02 0 0 Z " fill="#3860BE" transform="translate(116,35)"/>
<path d="M0 0 C4.98046875 2.05078125 4.98046875 2.05078125 7 3 C7.8971875 3.37125 8.794375 3.7425 9.71875 4.125 C12 6 12 6 12.48828125 9.57421875 C12.45514248 10.94616376 12.39563595 12.3176753 12.3125 13.6875 C12.27866211 14.7403418 12.27866211 14.7403418 12.24414062 15.81445312 C12.18531647 17.5438833 12.09563389 19.27221438 12 21 C8 19 4 17 0 15 C0 10.05 0 5.1 0 0 Z " fill="#46D7E9" transform="translate(181,51)"/>
<path d="M0 0 C1.21947175 13.46500059 1.21947175 13.46500059 -1.67578125 17.109375 C-4.92158761 19.12687804 -7.15528549 20 -11 20 C-11.59136689 15.20335743 -11.8954407 10.76861909 -11 6 C-8.31123923 3.22017603 -4.10587224 0 0 0 Z " fill="#5273FB" transform="translate(207,51)"/>
<path d="M0 0 C1.32 0 2.64 0 4 0 C4.2785731 12.8143625 3.48801657 25.27214397 2 38 C0.68 38 -0.64 38 -2 38 C-2.14154319 29.9408845 -1.58611492 21.9728188 -1 13.9375 C-0.90335584 12.58140084 -0.8069995 11.22528114 -0.7109375 9.86914062 C-0.47677906 6.57921453 -0.23972501 3.28952437 0 0 Z " fill="#2F57C4" transform="translate(412,30)"/>
<path d="M0 0 C6.51472081 5.09847716 6.51472081 5.09847716 8 9 C8.23046875 11.47265625 8.23046875 11.47265625 8.1875 14.0625 C8.18105469 14.91972656 8.17460937 15.77695312 8.16796875 16.66015625 C8 19 8 19 7 22 C1.72 21.67 -3.56 21.34 -9 21 C-8.67 19.68 -8.34 18.36 -8 17 C-4.7 17 -1.4 17 2 17 C2.05441656 15.10448978 2.09298035 13.2085208 2.125 11.3125 C2.14820313 10.25675781 2.17140625 9.20101562 2.1953125 8.11328125 C1.99858729 4.97748141 1.33057654 2.82354627 0 0 Z " fill="#4066C7" transform="translate(296,32)"/>
<path d="M0 0 C0.66 0 1.32 0 2 0 C2.05076484 7.58053728 2.08576094 15.1610306 2.10986328 22.74169922 C2.11991262 25.31984088 2.13355426 27.89797118 2.15087891 30.47607422 C2.17517367 34.18459889 2.18649396 37.89297268 2.1953125 41.6015625 C2.20563507 42.75177887 2.21595764 43.90199524 2.22659302 45.08706665 C2.22807142 55.66326772 2.22807142 55.66326772 0 60 C-1.485 60.495 -1.485 60.495 -3 61 C-2.86042877 60.27169983 -2.72085754 59.54339966 -2.57705688 58.79302979 C-1.26189907 51.51578924 -0.67042656 44.49594334 -0.5859375 37.109375 C-0.56657135 36.03874817 -0.5472052 34.96812134 -0.5272522 33.86505127 C-0.46815583 30.49344491 -0.42135445 27.12180309 -0.375 23.75 C-0.33675567 21.4439967 -0.29770035 19.1380067 -0.2578125 16.83203125 C-0.16251323 11.22147349 -0.07726804 5.61083354 0 0 Z " fill="#4DD3E1" transform="translate(236,15)"/>
<path d="M0 0 C1.04671875 -0.020625 2.0934375 -0.04125 3.171875 -0.0625 C9.76248681 -0.09545306 15.16083952 0.6867534 21.25 3.25 C20.26 3.91 19.27 4.57 18.25 5.25 C18.25 4.59 18.25 3.93 18.25 3.25 C11.45336964 1.98249331 4.70701316 2.13860274 -2.1875 2.1875 C-4.00024414 2.19426758 -4.00024414 2.19426758 -5.84960938 2.20117188 C-8.81642772 2.21289843 -11.7832204 2.23083201 -14.75 2.25 C-15.08 5.88 -15.41 9.51 -15.75 13.25 C-14.43 13.25 -13.11 13.25 -11.75 13.25 C-11.42 25.46 -11.09 37.67 -10.75 50.25 C-11.41 49.92 -12.07 49.59 -12.75 49.25 C-13.08 38.03 -13.41 26.81 -13.75 15.25 C-14.74 15.25 -15.73 15.25 -16.75 15.25 C-16.75 10.63 -16.75 6.01 -16.75 1.25 C-11.06558522 0.11311704 -5.7754711 0.02803627 0 0 Z " fill="#7096CE" transform="translate(89.75,26.75)"/>
<path d="M0 0 C2.9375 0.9375 2.9375 0.9375 4.375 2.625 C5.12370609 5.70301393 4.71713494 7.88392984 3.9375 10.9375 C2.9475 12.4225 2.9475 12.4225 1.9375 13.9375 C1.2775 13.6075 0.6175 13.2775 -0.0625 12.9375 C0.5975 11.9475 1.2575 10.9575 1.9375 9.9375 C2.32249891 8.28200469 2.66543135 6.6152567 2.9375 4.9375 C-0.66904039 7.34186026 -0.91702932 8.88429607 -2.0625 12.9375 C-10.4625 11.94926471 -10.4625 11.94926471 -14.0625 9.9375 C-14.3925 8.6175 -14.7225 7.2975 -15.0625 5.9375 C-12.0925 6.9275 -9.1225 7.9175 -6.0625 8.9375 C-6.124375 8.009375 -6.18625 7.08125 -6.25 6.125 C-6.0625 2.9375 -6.0625 2.9375 -4.9375 1 C-3.0625 -0.0625 -3.0625 -0.0625 0 0 Z " fill="#335ABA" transform="translate(28.0625,35.0625)"/>
<path d="M0 0 C1.1442897 0.0028299 2.28857941 0.00565979 3.46754456 0.00857544 C7.10477368 0.01972672 10.74175216 0.04482236 14.37890625 0.0703125 C16.85220997 0.08034881 19.32551757 0.08947352 21.79882812 0.09765625 C27.84643898 0.11964954 33.8939047 0.15307686 39.94140625 0.1953125 C39.94140625 0.5253125 39.94140625 0.8553125 39.94140625 1.1953125 C38.98967026 1.2107737 38.98967026 1.2107737 38.01870728 1.22654724 C31.43293663 1.33447385 24.84730666 1.44908285 18.26171875 1.56762695 C15.80178766 1.61102029 13.3418256 1.65269206 10.88183594 1.69262695 C7.35211841 1.75022307 3.82255749 1.81394807 0.29296875 1.87890625 C-0.81227142 1.89561874 -1.9175116 1.91233124 -3.0562439 1.92955017 C-4.07715118 1.94949539 -5.09805847 1.96944061 -6.14990234 1.98999023 C-7.50225479 2.01330666 -7.50225479 2.01330666 -8.88192749 2.03709412 C-11.10495676 2.05966342 -11.10495676 2.05966342 -13.05859375 3.1953125 C-10.08859375 3.6903125 -10.08859375 3.6903125 -7.05859375 4.1953125 C-7.05859375 4.5253125 -7.05859375 4.8553125 -7.05859375 5.1953125 C-7.83203125 5.29328125 -8.60546875 5.39125 -9.40234375 5.4921875 C-16.07603589 6.45029182 -21.21485882 7.82392697 -27.05859375 11.1953125 C-26.99609375 8.9453125 -26.99609375 8.9453125 -26.05859375 6.1953125 C-17.75259736 0.38111502 -9.8881892 -0.09268214 0 0 Z " fill="#63D1E6" transform="translate(199.05859375,12.8046875)"/>
<path d="M0 0 C2.875 1.4375 2.875 1.4375 5 3 C5 3.66 5 4.32 5 5 C-1.21153846 9.01923077 -1.21153846 9.01923077 -4.5625 8.9375 C-7.48747943 7.81250791 -10.23751588 6.47760779 -13 5 C-13 4.34 -13 3.68 -13 3 C-5.65873016 -1.8452381 -5.65873016 -1.8452381 0 0 Z " fill="#5076F6" transform="translate(198,45)"/>
<path d="M0 0 C0.639375 0.680625 1.27875 1.36125 1.9375 2.0625 C4.98209973 5.11574916 8.35957934 7.67401405 11.77734375 10.29296875 C19.68188302 16.36376605 19.68188302 16.36376605 21 19 C21.1875 22 21.1875 22 21 25 C20.34 25.66 19.68 26.32 19 27 C17.0625 26.9375 17.0625 26.9375 15 26 C12.46629412 22.65188866 12 21.29875783 12 17 C8.37 17.33 4.74 17.66 1 18 C1 17.67 1 17.34 1 17 C5.0527516 16.01751476 8.83861737 15.91840426 13 16 C13.33 17.32 13.66 18.64 14 20 C15.32 20 16.64 20 18 20 C18.33 21.32 18.66 22.64 19 24 C18.78866843 20.01897007 18.47768228 18.43905168 15.48828125 15.69140625 C14.44027344 14.98886719 13.39226562 14.28632812 12.3125 13.5625 C7.42542012 10.1550147 3.54115307 6.81990279 0 2 C0 1.34 0 0.68 0 0 Z " fill="#5279C7" transform="translate(261,50)"/>
<path d="M0 0 C0.89203125 0.45503906 1.7840625 0.91007812 2.703125 1.37890625 C3.71632812 1.90291016 3.71632812 1.90291016 4.75 2.4375 C4.75 3.0975 4.75 3.7575 4.75 4.4375 C1.75 5.4375 1.75 5.4375 -0.1171875 4.625 C-0.77976563 4.233125 -1.44234375 3.84125 -2.125 3.4375 C-5.31067754 1.7484797 -5.31067754 1.7484797 -8.875 1.5 C-11.41935283 2.44610004 -11.41935283 2.44610004 -14.3125 4.125 C-17.25 5.4375 -17.25 5.4375 -19.625 4.625 C-20.16125 4.233125 -20.6975 3.84125 -21.25 3.4375 C-13.09716171 -2.63716382 -9.38174833 -4.81431822 0 0 Z " fill="#9BD1FE" transform="translate(202.25,43.5625)"/>
<path d="M0 0 C1.98 0 3.96 0 6 0 C2.32442148 4.00972202 -1.18966896 6.45335415 -6 9 C-6 13.95 -6 18.9 -6 24 C-7.32 24.33 -8.64 24.66 -10 25 C-9.34 24.67 -8.68 24.34 -8 24 C-8.08702126 21.72844502 -8.19519522 19.45769257 -8.3125 17.1875 C-8.39951172 15.29064453 -8.39951172 15.29064453 -8.48828125 13.35546875 C-8.72443393 10.08948671 -8.72443393 10.08948671 -10.3125 8.1875 C-12.06410503 6.95488905 -13.8081044 5.84084854 -15.6875 4.8125 C-16.780625 4.214375 -17.87375 3.61625 -19 3 C-18.67 2.34 -18.34 1.68 -18 1 C-16.453125 2.0209375 -16.453125 2.0209375 -14.875 3.0625 C-12.10743608 4.64157377 -11.17276072 5.00691043 -7.875 4.875 C-5.17111996 4.05207999 -2.58565221 3.14072892 0 2 C0 1.34 0 0.68 0 0 Z " fill="#4FACFC" transform="translate(203,48)"/>
<path d="M0 0 C0.33 0 0.66 0 1 0 C1.33 19.47 1.66 38.94 2 59 C3.98 59 5.96 59 8 59 C4.77208445 61.1519437 3.71599191 61.20086443 0 61 C-0.16892064 53.59863459 -0.32867737 46.19711131 -0.48217773 38.79541016 C-0.53542375 36.27941448 -0.59073845 33.76346167 -0.64819336 31.24755859 C-0.73059166 27.6234664 -0.80545756 23.9992833 -0.87890625 20.375 C-0.90594131 19.25697998 -0.93297638 18.13895996 -0.96083069 16.98706055 C-1.07046027 11.20182718 -0.89960577 5.71870606 0 0 Z " fill="#688DCC" transform="translate(391,27)"/>
<path d="M0 0 C2 2 2 2 2.125 5.125 C2.08375 6.07375 2.0425 7.0225 2 8 C1.34 7.01 0.68 6.02 0 5 C-0.99 5.66 -1.98 6.32 -3 7 C-3.25030977 9.58380177 -3.25030977 9.58380177 -3 12 C-5.46800047 10.84826645 -7.04783565 9.95216435 -9 8 C-9.3125 5 -9.3125 5 -9 2 C-5.54754176 -0.30163882 -4.05261287 -0.34490322 0 0 Z " fill="#2D57C9" transform="translate(283,38)"/>
<path d="M0 0 C7.92 0.33 15.84 0.66 24 1 C24 1.66 24 2.32 24 3 C17.57325709 5.14224764 8.89907313 5.23683849 2.625 2.5 C1.325625 1.7575 1.325625 1.7575 0 1 C0 0.67 0 0.34 0 0 Z " fill="#4AD5E1" transform="translate(179,98)"/>
<path d="M0 0 C1.32 0 2.64 0 4 0 C4 5.94 4 11.88 4 18 C3.34 17.01 2.68 16.02 2 15 C1.34 15.99 0.68 16.98 0 18 C0 12.06 0 6.12 0 0 Z " fill="#365EC9" transform="translate(412,30)"/>
<path d="M0 0 C0.99 0.33 1.98 0.66 3 1 C1.625 2.5 1.625 2.5 0 4 C-0.66 4 -1.32 4 -2 4 C-2.27714844 4.70511719 -2.55429688 5.41023438 -2.83984375 6.13671875 C-3.60696406 8.02998202 -4.41137047 9.9086033 -5.25390625 11.76953125 C-9.05867106 20.61702912 -9.86603968 28.51317404 -10 38 C-10.33 38 -10.66 38 -11 38 C-11.52375006 26.76847092 -11.78421794 17.9909219 -6 8 C-5.65582031 7.11828125 -5.31164062 6.2365625 -4.95703125 5.328125 C-3.79744917 2.5072641 -2.66204172 1.45202276 0 0 Z " fill="#93DDFB" transform="translate(160,26)"/>
<path d="M0 0 C0.66 0 1.32 0 2 0 C2 1.65 2 3.3 2 5 C1.01 5.495 1.01 5.495 0 6 C0 4.02 0 2.04 0 0 Z M-1 6 C-0.34 6.66 0.32 7.32 1 8 C0.40917986 9.48454806 -0.19812655 10.96254351 -0.8125 12.4375 C-1.14894531 13.26121094 -1.48539062 14.08492187 -1.83203125 14.93359375 C-3 17 -3 17 -6 18 C-6.66 16.02 -7.32 14.04 -8 12 C-5.94766315 9.7522025 -4.99332739 8.9977758 -2 8 C-1.67 7.34 -1.34 6.68 -1 6 Z " fill="#2E56C7" transform="translate(300,72)"/>
<path d="M0 0 C0.66 0 1.32 0 2 0 C1.20824295 8.23427332 1.20824295 8.23427332 -2 11 C-5.1875 11.25 -5.1875 11.25 -8 11 C-7.67 12.98 -7.34 14.96 -7 17 C-5.35 17 -3.7 17 -2 17 C-2.66 17.66 -3.32 18.32 -4 19 C-5.32 19 -6.64 19 -8 19 C-8.66 16.03 -9.32 13.06 -10 10 C-9.21625 9.855625 -8.4325 9.71125 -7.625 9.5625 C-5.03578982 9.12201075 -5.03578982 9.12201075 -3 8 C-2.65977214 6.00116131 -2.32670903 4.00109278 -2 2 C-1.34 1.34 -0.68 0.68 0 0 Z " fill="#648BCE" transform="translate(29,40)"/>
<path d="M0 0 C0.763125 0.0825 1.52625 0.165 2.3125 0.25 C1.83901586 4.4166604 1.26553159 7.17884715 -1.6875 10.25 C-2.3475 10.25 -3.0075 10.25 -3.6875 10.25 C-4.875 7.5 -4.875 7.5 -5.6875 4.25 C-4.25405018 1.04581805 -3.5247564 0.32788432 0 0 Z " fill="#ABD3FD" transform="translate(29.6875,62.75)"/>
<path d="M0 0 C0.66 0 1.32 0 2 0 C3.21977329 2.43954658 3.20153813 4.15305849 3.25 6.875 C3.27578125 7.73867188 3.3015625 8.60234375 3.328125 9.4921875 C2.93690173 12.48225103 2.07073811 13.83879275 0 16 C-0.66 16 -1.32 16 -2 16 C-1.34 10.72 -0.68 5.44 0 0 Z " fill="#2E55C5" transform="translate(124,53)"/>
<path d="M0 0 C0.99 0.495 0.99 0.495 2 1 C2.73075648 3.3140622 3.40138258 5.64828869 4 8 C6.13093906 6.93453047 7.36587557 5.70840281 9 4 C9 6.31 9 8.62 9 11 C9.99 11 10.98 11 12 11 C12 12.32 12 13.64 12 15 C5.95483738 14.0517392 5.95483738 14.0517392 3.421875 11.26171875 C0.98378498 7.54152966 -0.71574427 4.58076335 0 0 Z " fill="#95B9E7" transform="translate(9,67)"/>
<path d="M0 0 C0.99 0 1.98 0 3 0 C3 2.97 3 5.94 3 9 C-0.5875213 7.66749209 -3.8364623 6.169283 -7 4 C-7 3.34 -7 2.68 -7 2 C-4.69 2 -2.38 2 0 2 C0 1.34 0 0.68 0 0 Z " fill="#5173FC" transform="translate(190,76)"/>
<path d="M0 0 C2.0625 0.4375 2.0625 0.4375 4 1 C4.08071788 3.79224073 4.14035408 6.58216566 4.1875 9.375 C4.22520508 10.56609375 4.22520508 10.56609375 4.26367188 11.78125 C4.29004405 13.85586148 4.15486462 15.93100865 4 18 C3.01 18.66 2.02 19.32 1 20 C1 14.06 1 8.12 1 2 C0.34 1.67 -0.32 1.34 -1 1 C-0.67 0.67 -0.34 0.34 0 0 Z " fill="#60D4EC" transform="translate(209,48)"/>
<path d="M0 0 C0.67546875 0.23976562 1.3509375 0.47953125 2.046875 0.7265625 C2.93890625 1.02304687 3.8309375 1.31953125 4.75 1.625 C5.63171875 1.92664062 6.5134375 2.22828125 7.421875 2.5390625 C10.41017471 3.07333427 11.49923002 2.62433191 14 1 C13.67 2.98 13.34 4.96 13 7 C4.6 6.01176471 4.6 6.01176471 1 4 C0.3671875 1.92578125 0.3671875 1.92578125 0 0 Z " fill="#325BBF" transform="translate(13,41)"/>
<path d="M0 0 C0.99 0.33 1.98 0.66 3 1 C1.03617993 2.50559539 -0.78263366 3.89131683 -3 5 C-3.72159424 6.64363134 -4.39351421 8.31050386 -5 10 C-5.99 9.67 -6.98 9.34 -8 9 C-8.06058594 9.67546875 -8.12117188 10.3509375 -8.18359375 11.046875 C-8.26738281 11.93890625 -8.35117187 12.8309375 -8.4375 13.75 C-8.51871094 14.63171875 -8.59992188 15.5134375 -8.68359375 16.421875 C-8.96238465 18.69350452 -9.38790577 20.79851823 -10 23 C-12.08249458 18.83501084 -11.39355266 14.20525502 -10 9.9375 C-7.30664937 5.98164127 -4.06908114 2.56778709 0 0 Z " fill="#7CA1D0" transform="translate(270,27)"/>
<path d="M0 0 C2.70313576 -0.21917317 4.43958382 -0.32851983 6.8125 1.0625 C8.67036623 4.09375543 8.37133265 6.53422859 8 10 C6.5 11.9375 6.5 11.9375 5 13 C5.66 10.36 6.32 7.72 7 5 C5.02 5 3.04 5 1 5 C0.67 3.35 0.34 1.7 0 0 Z " fill="#4167BF" transform="translate(25,58)"/>
<path d="M0 0 C6.93 0 13.86 0 21 0 C21.89840477 4.49202386 21.90338924 6.68380697 21 11 C20.67 11 20.34 11 20 11 C20 8.03 20 5.06 20 2 C13.4 1.67 6.8 1.34 0 1 C0 0.67 0 0.34 0 0 Z " fill="#6288CE" transform="translate(344,28)"/>
<path d="M0 0 C5.96837234 0.09233769 11.81514044 0.2789037 17.71484375 1.23046875 C18.04484375 1.89046875 18.37484375 2.55046875 18.71484375 3.23046875 C18.05484375 3.23046875 17.39484375 3.23046875 16.71484375 3.23046875 C16.71484375 3.89046875 16.71484375 4.55046875 16.71484375 5.23046875 C13.74484375 4.73546875 13.74484375 4.73546875 10.71484375 4.23046875 C10.71484375 3.57046875 10.71484375 2.91046875 10.71484375 2.23046875 C5.76484375 2.23046875 0.81484375 2.23046875 -4.28515625 2.23046875 C-2.28515625 0.23046875 -2.28515625 0.23046875 0 0 Z " fill="#80A4D9" transform="translate(277.28515625,24.76953125)"/>
<path d="M0 0 C0.639375 0.680625 1.27875 1.36125 1.9375 2.0625 C5.63531571 5.7708508 9.84479528 8.82912045 14 12 C15.66998649 13.32917292 17.33857487 14.66014102 19 16 C18.67 16.66 18.34 17.32 18 18 C4.8729696 8.63265306 4.8729696 8.63265306 0 2 C0 1.34 0 0.68 0 0 Z " fill="#4D73BD" transform="translate(261,50)"/>
<path d="M0 0 C0.33 0 0.66 0 1 0 C1 2.31 1 4.62 1 7 C1.66 7.33 2.32 7.66 3 8 C3 9.98 3 11.96 3 14 C1.68 14 0.36 14 -1 14 C-1 12.68 -1 11.36 -1 10 C-1.66 9.67 -2.32 9.34 -3 9 C-2.01 6.03 -1.02 3.06 0 0 Z " fill="#3860C8" transform="translate(122,61)"/>
<path d="M0 0 C3.63 0 7.26 0 11 0 C11 1.65 11 3.3 11 5 C8.69 5 6.38 5 4 5 C4 3.68 4 2.36 4 1 C2.68 0.67 1.36 0.34 0 0 Z " fill="#335DBA" transform="translate(326,40)"/>
<path d="M0 0 C0.99 0 1.98 0 3 0 C3 3.3 3 6.6 3 10 C1.02 10.33 -0.96 10.66 -3 11 C-2.690625 10.29875 -2.38125 9.5975 -2.0625 8.875 C-0.96697322 5.91063343 -0.43577008 3.12301892 0 0 Z " fill="#3058C8" transform="translate(301,41)"/>
<path d="M0 0 C0 1.65 0 3.3 0 5 C-2.64 5 -5.28 5 -8 5 C-8 4.01 -8 3.02 -8 2 C-7.34 2 -6.68 2 -6 2 C-6 1.34 -6 0.68 -6 0 C-2.25 -1.125 -2.25 -1.125 0 0 Z " fill="#2F57C2" transform="translate(426,85)"/>
<path d="M0 0 C0.66 0.33 1.32 0.66 2 1 C0.02 1.99 0.02 1.99 -2 3 C-1.67 4.32 -1.34 5.64 -1 7 C-1.99 7.495 -1.99 7.495 -3 8 C-3.65772428 11.02934491 -3.65772428 11.02934491 -4 14 C-3.34 14.33 -2.68 14.66 -2 15 C-3.32 14.67 -4.64 14.34 -6 14 C-5.67 10.04 -5.34 6.08 -5 2 C-3.35 1.34 -1.7 0.68 0 0 Z " fill="#779DD3" transform="translate(15,26)"/>
<path d="M0 0 C2.97 0 5.94 0 9 0 C9 1.33333333 9 2.66666667 9 4 C5.7 4 2.4 4 -1 4 C-0.67 2.68 -0.34 1.36 0 0 Z " fill="#3057BD" transform="translate(288,49)"/>
<path d="M0 0 C2.475 0.495 2.475 0.495 5 1 C4.2884375 2.175625 4.2884375 2.175625 3.5625 3.375 C1.60263251 7.92189258 1.28089128 12.09893144 1 17 C0.67 17 0.34 17 0 17 C0 11.39 0 5.78 0 0 Z " fill="#2F56BD" transform="translate(95,40)"/>
<path d="M0 0 C0.99 0.4021875 0.99 0.4021875 2 0.8125 C5.64939067 2.25705047 9.32245433 3.62871178 13 5 C13 5.99 13 6.98 13 8 C7.13965614 7.71412957 3.92483606 5.08740323 0 1 C0 0.67 0 0.34 0 0 Z " fill="#3E63C2" transform="translate(16,80)"/>
<path d="M0 0 C2.9375 1.625 2.9375 1.625 6 4 C6.875 7.25 6.875 7.25 7 10 C6.01 10.495 6.01 10.495 5 11 C5 9.35 5 7.7 5 6 C3.68 6 2.36 6 1 6 C0.87625 5.360625 0.7525 4.72125 0.625 4.0625 C0.315625 3.0415625 0.315625 3.0415625 0 2 C-0.66 1.67 -1.32 1.34 -2 1 C-1.34 0.67 -0.68 0.34 0 0 Z " fill="#A3CDFC" transform="translate(274,64)"/>
<path d="M0 0 C0.99 0.495 0.99 0.495 2 1 C3.41904116 5.54093172 3.09226843 10.2943099 3 15 C2.01 15 1.02 15 0 15 C0 10.05 0 5.1 0 0 Z " fill="#60D0E6" transform="translate(181,51)"/>
<path d="M0 0 C-0.66 0 -1.32 0 -2 0 C-2 1.32 -2 2.64 -2 4 C0.64 3.67 3.28 3.34 6 3 C2.36576791 5.32590854 -0.77088331 5.16265833 -5 5 C-5 3.68 -5 2.36 -5 1 C-6.32 0.67 -7.64 0.34 -9 0 C-5.62182575 -0.84454356 -3.32534757 -1.10844919 0 0 Z " fill="#3C63BE" transform="translate(347,86)"/>
<path d="M0 0 C-2.625 2.125 -2.625 2.125 -6 4 C-9.3125 3.375 -9.3125 3.375 -12 2 C-12.33 1.34 -12.66 0.68 -13 0 C-11.39679026 -0.19551338 -9.79237014 -0.38111983 -8.1875 -0.5625 C-7.29417969 -0.66691406 -6.40085938 -0.77132812 -5.48046875 -0.87890625 C-3 -1 -3 -1 0 0 Z " fill="#48B1FC" transform="translate(185,45)"/>
<path d="M0 0 C1.5625 1.625 1.5625 1.625 3 4 C2.76261647 7.87726431 2.17282078 9.74076883 0 13 C-0.66 12.67 -1.32 12.34 -2 12 C-1.34 11.01 -0.68 10.02 0 9 C0.38499891 7.34450469 0.72793135 5.6777567 1 4 C-0.98 4.99 -0.98 4.99 -3 6 C-3.33 4.35 -3.66 2.7 -4 1 C-2.68 0.67 -1.36 0.34 0 0 Z " fill="#4E75C8" transform="translate(30,36)"/>
<path d="M0 0 C0.28875 0.639375 0.5775 1.27875 0.875 1.9375 C1.82823451 4.15206079 1.82823451 4.15206079 4 5 C4.625 8.0625 4.625 8.0625 5 11 C2.53199953 9.84826645 0.95216435 8.95216435 -1 7 C-1.1875 3.9375 -1.1875 3.9375 -1 1 C-0.67 0.67 -0.34 0.34 0 0 Z " fill="#3C62BF" transform="translate(275,39)"/>
<path d="M0 0 C2.5 1.375 2.5 1.375 5 3 C5 3.66 5 4.32 5 5 C3.35 4.67 1.7 4.34 0 4 C0 7.63 0 11.26 0 15 C-0.33 15 -0.66 15 -1 15 C-1.22211116 13.06403108 -1.42722992 11.12610672 -1.625 9.1875 C-1.74101563 8.10855469 -1.85703125 7.02960937 -1.9765625 5.91796875 C-2 3 -2 3 0 0 Z " fill="#486EC6" transform="translate(100,41)"/>
<path d="M0 0 C0.66 0 1.32 0 2 0 C1.34 4.29 0.68 8.58 0 13 C0.99 12.34 1.98 11.68 3 11 C3.99 11.33 4.98 11.66 6 12 C2.375 15 2.375 15 -1 15 C-1.02685412 12.68756208 -1.04632841 10.3750373 -1.0625 8.0625 C-1.07410156 6.77472656 -1.08570313 5.48695312 -1.09765625 4.16015625 C-1 1 -1 1 0 0 Z " fill="#4A7EF2" transform="translate(197,56)"/>
<path d="M0 0 C6.53080569 1.75829384 6.53080569 1.75829384 9.0625 3.0625 C11.6407932 4.31006122 14.17828807 4.6152211 17 5 C17 5.33 17 5.66 17 6 C10.11509775 6.57374185 5.97332123 5.4753869 0 2 C0 1.34 0 0.68 0 0 Z " fill="#98DDFC" transform="translate(171,97)"/>
<path d="M0 0 C0 4.95 0 9.9 0 15 C-0.33 15 -0.66 15 -1 15 C-1.02578125 14.30132812 -1.0515625 13.60265625 -1.078125 12.8828125 C-1.13484375 11.97273438 -1.1915625 11.06265625 -1.25 10.125 C-1.29640625 9.22007813 -1.3428125 8.31515625 -1.390625 7.3828125 C-1.75611148 4.82889456 -1.75611148 4.82889456 -4.046875 3.6796875 C-4.69140625 3.45539062 -5.3359375 3.23109375 -6 3 C-1.125 0 -1.125 0 0 0 Z " fill="#4C79E9" transform="translate(207,51)"/>
<path d="M0 0 C0.93065133 2.60582371 1.14917407 3.64198224 0.0625 6.25 C-0.4634375 7.11625 -0.4634375 7.11625 -1 8 C-1.99 7.67 -2.98 7.34 -4 7 C-3.6875 4.625 -3.6875 4.625 -3 2 C-2.01 1.34 -1.02 0.68 0 0 Z " fill="#A0C7F9" transform="translate(283,42)"/>
<path d="M0 0 C-0.99 0.495 -0.99 0.495 -2 1 C0.97 1.495 0.97 1.495 4 2 C4 2.33 4 2.66 4 3 C0.7 3.33 -2.6 3.66 -6 4 C-6.33 3.34 -6.66 2.68 -7 2 C-7.99 1.67 -8.98 1.34 -10 1 C-3.71428571 -1.42857143 -3.71428571 -1.42857143 0 0 Z " fill="#60D1E5" transform="translate(188,15)"/>
<path d="M0 0 C0.99 0 1.98 0 3 0 C4.83691257 3.78187881 5.15837626 5.94568308 4 10 C3.34 10 2.68 10 2 10 C1.67 10.66 1.34 11.32 1 12 C1.33 8.37 1.66 4.74 2 1 C1.34 0.67 0.68 0.34 0 0 Z " fill="#9DC6F7" transform="translate(426,70)"/>
<path d="M0 0 C0.33 0.99 0.66 1.98 1 3 C5.29 2.34 9.58 1.68 14 1 C13.67 1.66 13.34 2.32 13 3 C10.66255706 3.46806645 8.30260921 3.82669794 5.9375 4.125 C4.00197266 4.37636719 4.00197266 4.37636719 2.02734375 4.6328125 C0.52880859 4.81457031 0.52880859 4.81457031 -1 5 C-0.67 3.35 -0.34 1.7 0 0 Z " fill="#577EC6" transform="translate(409,65)"/>
<path d="M0 0 C0.66 0 1.32 0 2 0 C1.6875 3.375 1.6875 3.375 1 7 C0.01 7.66 -0.98 8.32 -2 9 C-2.125 5.625 -2.125 5.625 -2 2 C-1.34 1.34 -0.68 0.68 0 0 Z " fill="#A5CCFD" transform="translate(29,40)"/>
<path d="M0 0 C5.78461538 4.43076923 5.78461538 4.43076923 6.875 7.3125 C6.936875 8.1478125 6.936875 8.1478125 7 9 C6.34 9 5.68 9 5 9 C4.67 9.99 4.34 10.98 4 12 C2.66666667 8 1.33333333 4 0 0 Z " fill="#3D61BD" transform="translate(296,32)"/>
<path d="M0 0 C2.475 0.99 2.475 0.99 5 2 C4.34 2.66 3.68 3.32 3 4 C3.99 4.66 4.98 5.32 6 6 C3.69 6.33 1.38 6.66 -1 7 C-1.33 5.68 -1.66 4.36 -2 3 C-1.34 3 -0.68 3 0 3 C0 2.01 0 1.02 0 0 Z " fill="#A3CAF1" transform="translate(276,32)"/>
<path d="M0 0 C0.33 0 0.66 0 1 0 C1.42004622 6.09067026 1.0566405 9.10816881 -3 14 C-3.99 14.495 -3.99 14.495 -5 15 C-4.40138258 12.64828869 -3.73075648 10.3140622 -3 8 C-2.34 7.67 -1.68 7.34 -1 7 C-0.59270772 4.67843403 -0.25561323 2.3431213 0 0 Z " fill="#426CC6" transform="translate(303,72)"/>
<path d="M0 0 C4.05338899 4.05338899 5.32323265 9.4505077 6 15 C3.62317631 12.86285601 2.40068998 11.06221946 1.3125 8.0625 C1.06113281 7.39347656 0.80976563 6.72445312 0.55078125 6.03515625 C0 4 0 4 0 0 Z " fill="#99DFFD" transform="translate(155,66)"/>
<path d="M0 0 C1.32 0 2.64 0 4 0 C4.33 1.32 4.66 2.64 5 4 C4.01 4 3.02 4 2 4 C0.31201173 5.43750191 0.31201173 5.43750191 -1 7 C-1.04254356 5.00045254 -1.04080783 2.99958364 -1 1 C-0.67 0.67 -0.34 0.34 0 0 Z " fill="#B3D5F0" transform="translate(15,68)"/>
<path d="M0 0 C0.33 0.99 0.66 1.98 1 3 C0.34 3.66 -0.32 4.32 -1 5 C-1.99 5 -2.98 5 -4 5 C-4.33 5.99 -4.66 6.98 -5 8 C-6.32 7.67 -7.64 7.34 -9 7 C-6.03 4.69 -3.06 2.38 0 0 Z " fill="#99DDFD" transform="translate(225,90)"/>
<path d="M0 0 C2.97 0 5.94 0 9 0 C7.515 1.98 7.515 1.98 6 4 C7.65 4 9.3 4 11 4 C11 4.33 11 4.66 11 5 C9.02 5 7.04 5 5 5 C5 4.01 5 3.02 5 2 C3.35 1.67 1.7 1.34 0 1 C0 0.67 0 0.34 0 0 Z " fill="#2D58B7" transform="translate(24,83)"/>
<path d="M0 0 C0.33 0.66 0.66 1.32 1 2 C1.99 2 2.98 2 4 2 C4.33 3.32 4.66 4.64 5 6 C6.32 5.34 7.64 4.68 9 4 C8.67 4.99 8.34 5.98 8 7 C5.6875 7.25 5.6875 7.25 3 7 C1.1875 5.1875 1.1875 5.1875 0 3 C0 2.01 0 1.02 0 0 Z " fill="#486FBE" transform="translate(21,67)"/>
<path d="M0 0 C4.875 0.875 4.875 0.875 6 2 C6.04080783 3.99958364 6.04254356 6.00045254 6 8 C5.34 7.01 4.68 6.02 4 5 C3.34 5 2.68 5 2 5 C2 4.01 2 3.02 2 2 C1.34 2 0.68 2 0 2 C0 1.34 0 0.68 0 0 Z " fill="#395FBC" transform="translate(279,38)"/>
<path d="M0 0 C-4.38423952 3.44475962 -7.30835767 5.31620235 -13 5 C-12.4225 4.731875 -11.845 4.46375 -11.25 4.1875 C-8.95215329 3.07576415 -8.95215329 3.07576415 -7.0625 1.375 C-4.53440331 -0.31039779 -2.97832406 -0.24819367 0 0 Z " fill="#9CDDFD" transform="translate(216,92)"/>
<path d="M0 0 C0.99 0.33 1.98 0.66 3 1 C2.67 1.99 2.34 2.98 2 4 C-0.31 4 -2.62 4 -5 4 C-3.36587557 2.29159719 -2.13093906 1.06546953 0 0 Z " fill="#2C56CD" transform="translate(38,82)"/>
<path d="M0 0 C0.66 1.32 1.32 2.64 2 4 C3.98 4 5.96 4 8 4 C4.77208445 6.1519437 3.71599191 6.20086443 0 6 C0 4.02 0 2.04 0 0 Z " fill="#7199DD" transform="translate(391,82)"/>
<path d="M0 0 C0.66 0.66 1.32 1.32 2 2 C-0.475 3.485 -0.475 3.485 -3 5 C-3.99 4.34 -4.98 3.68 -6 3 C-4.02 2.01 -2.04 1.02 0 0 Z " fill="#2D55CC" transform="translate(115,78)"/>
<path d="M0 0 C0.99 0.33 1.98 0.66 3 1 C2.1875 3.4375 2.1875 3.4375 1 6 C0.01 6.33 -0.98 6.66 -2 7 C-2 3.89448334 -1.4606285 2.64738916 0 0 Z " fill="#2F56CC" transform="translate(25,38)"/>
<path d="M0 0 C1.65 1.65 3.3 3.3 5 5 C4.34 7.31 3.68 9.62 3 12 C2.67 12 2.34 12 2 12 C1.34 8.04 0.68 4.08 0 0 Z " fill="#4D76C6" transform="translate(44,31)"/>
<path d="M0 0 C-2.71182212 2.60334924 -3.89133813 2.99456691 -7.75 3.1875 C-8.8225 3.125625 -9.895 3.06375 -11 3 C-3.71428571 -1.85714286 -3.71428571 -1.85714286 0 0 Z " fill="#9BDCFC" transform="translate(216,99)"/>
<path d="M0 0 C1.65 0 3.3 0 5 0 C4.67 1.32 4.34 2.64 4 4 C2.68 4.33 1.36 4.66 0 5 C0 3.35 0 1.7 0 0 Z " fill="#3156BE" transform="translate(396,87)"/>
<path d="M0 0 C-0.625 1.9375 -0.625 1.9375 -2 4 C-5.125 4.75 -5.125 4.75 -8 5 C-3.16129032 0 -3.16129032 0 0 0 Z " fill="#8CDCF9" transform="translate(210,79)"/>
<path d="M0 0 C0.66 0.33 1.32 0.66 2 1 C1.67 1.99 1.34 2.98 1 4 C-0.9375 4.8125 -0.9375 4.8125 -3 5 C-3.66 4.34 -4.32 3.68 -5 3 C-2.625 1.4375 -2.625 1.4375 0 0 Z " fill="#A5CEFC" transform="translate(118,81)"/>
<path d="M0 0 C2.475 0.495 2.475 0.495 5 1 C5.33 1.99 5.66 2.98 6 4 C5.01 4.33 4.02 4.66 3 5 C2.34 4.67 1.68 4.34 1 4 C0.375 1.9375 0.375 1.9375 0 0 Z " fill="#3E64BB" transform="translate(13,41)"/>
<path d="M0 0 C2.31 1.98 4.62 3.96 7 6 C6.67 6.66 6.34 7.32 6 8 C5.34 8 4.68 8 4 8 C0 2.58823529 0 2.58823529 0 0 Z " fill="#4C71C0" transform="translate(116,35)"/>
</svg>
