<?xml version="1.0" encoding="UTF-8"?>
<svg id="Layer_2" xmlns="http://www.w3.org/2000/svg" viewBox="0 0 2635.39 970.04">
  <defs>
    <style>
      .cls-1 {
        fill: #fff;
      }

      .cls-2 {
        fill: #6a4dff;
      }

      .cls-3 {
        fill: #6e5fff;
      }

      .cls-4 {
        fill: #5143dd;
      }
    </style>
  </defs>
  <g id="Layer_1-2" data-name="Layer_1">
    <g>
      <g>
        <g>
          <path class="cls-3" d="M895.21,249.87l-182.74,73.23v244.46c0,49.2-27.95,93.79-71.33,113.81l-193.54,89.32v199.35l386.11-206.03c38.08-20.32,61.49-57.64,61.49-98V249.87Z"/>
          <path class="cls-4" d="M0,249.87l182.74,73.23v244.46c0,49.2,27.95,93.79,71.33,113.81l193.54,89.32v199.35L61.49,764.01C23.42,743.69,0,706.37,0,666.01V249.87Z"/>
          <path class="cls-2" d="M895.21,249.87l-182.74,73.23-222.14-121.23c-37.18-20.29-81.88-19.01-117.92,3.38l-189.68,117.85L0,249.87,377.99,16.29c37.74-20.84,84.72-21.74,123.38-2.36l393.84,235.94Z"/>
        </g>
        <g>
          <path class="cls-4" d="M232.39,343.28l216.94,98.01-2.63,272.29-169.12-74.29c-28.22-12.4-45.81-37.98-45.17-65.72l-.02-230.28Z"/>
          <path class="cls-3" d="M660.87,343.28l-211.54,98.01-2.63,272.29,152.68-66.66c39.14-17.09,63.77-52.32,63.42-90.75l-1.94-212.89Z"/>
          <path class="cls-2" d="M660.87,343.28l-185.75-93.85c-27.47-13.14-60.91-11.99-87.13,3l-155.6,90.85,216.94,98.01,211.54-98.01Z"/>
        </g>
      </g>
      <g>
        <path class="cls-2" d="M1341.39,568.31c0,79.67-69.84,135.02-151.32,135.02s-141.75-54.58-151.58-117.43l92.08-21.99c7.5,23.79,31.82,35.95,53.29,35.95,27.16,0,45.53-19.14,45.53-45.52,0-33.11-31.3-63.37-94.67-63.89l12.67-49.15c39.83,0,63.37-20.43,63.37-44.75,0-18.37-13.19-31.56-30.52-31.56-14.74,0-28.45,9.57-34.66,27.16l-92.08-20.18c14.74-60.53,64.67-105.28,134.25-105.28s130.37,47.86,130.37,112.01c0,34.66-17.85,66.99-47.34,80.7,40.09,16.55,70.62,56.65,70.62,108.9Z"/>
        <path class="cls-2" d="M1760.67,488.9c0,129.33-86.65,207.96-228.4,207.96h-136.06v-416.71l136.06-.25c141.75-.52,228.4,78.63,228.4,209ZM1649.7,488.64c0-65.44-45.53-105.27-120.28-105.27h-25.35v209.26h26.39c73.98,0,119.24-39.32,119.24-103.98Z"/>
      </g>
      <g>
        <path class="cls-1" d="M1932.94,691.21c-63.03,0-107.98-31.66-127.28-65.4l18.53-13.63c23.06,32.96,65.22,54.39,109,54.39,62.95,0,110.42-35.24,110.42-81.97,0-54.54-63.74-78.67-119.97-99.96-53.6-20.84-101.45-44-101.45-98.95s51.39-100.65,119.53-100.65c56.36,0,90.54,29.4,105.34,59.5l-17.12,11.49c-17.98-28.8-52.04-47.4-88.74-47.4-52.04,0-94.38,35.03-94.38,78.08,0,45.64,44.89,62.75,96.87,82.56l10,3.82c60.28,24.41,114.56,51.31,114.56,110.72s-56.91,107.38-135.31,107.38Z"/>
        <polygon class="cls-1" points="2198.15 685.52 2198.15 315.11 2076.84 315.11 2076.84 291.25 2343.32 291.25 2343.32 315.11 2222.52 315.11 2222.52 685.52 2198.15 685.52"/>
        <polygon class="cls-1" points="2406.67 685.52 2406.67 291.25 2431.05 291.25 2431.05 661.4 2635.39 661.4 2635.39 685.52 2406.67 685.52"/>
      </g>
    </g>
  </g>
</svg>